<?xml version="1.0" encoding="UTF-8" standalone="no"?>
<!DOCTYPE svg PUBLIC "-//W3C//DTD SVG 1.1//EN" "http://www.w3.org/Graphics/SVG/1.1/DTD/svg11.dtd">
<!-- 由 Microsoft Visio, SVG Export 生成 accum-search-tree.svg 页-1 -->
<svg xmlns="http://www.w3.org/2000/svg" xmlns:xlink="http://www.w3.org/1999/xlink" xmlns:ev="http://www.w3.org/2001/xml-events"
		xmlns:v="http://schemas.microsoft.com/visio/2003/SVGExtensions/" width="11.4207in" height="2.95901in"
		viewBox="0 0 822.287 213.049" xml:space="preserve" color-interpolation-filters="sRGB" class="st6">
	<v:documentProperties v:langID="2052" v:metric="true" v:viewMarkup="false"/>

	<style type="text/css">
	<![CDATA[
		.st1 {fill:#ffffff;stroke:#000000;stroke-linecap:round;stroke-linejoin:round;stroke-width:0.75}
		.st2 {fill:#000000;fill-opacity:1;stroke:#000000;stroke-opacity:1;stroke-width:0.22935779816514}
		.st3 {fill:#000000;font-family:思源宋体 CN;font-size:0.833336em}
		.st4 {marker-end:url(#mrkr5-4);stroke:#000000;stroke-linecap:round;stroke-linejoin:round;stroke-width:0.75}
		.st5 {fill:#ffffff;stroke:none;stroke-linecap:round;stroke-linejoin:round;stroke-width:0.24}
		.st6 {fill:none;fill-rule:evenodd;font-size:12px;overflow:visible;stroke-linecap:square;stroke-miterlimit:3}
	]]>
	</style>

	<defs id="Markers">
		<g id="lend5">
			<path d="M 2 1 L 0 0 L 1.98117 -0.993387 C 1.67173 -0.364515 1.67301 0.372641 1.98465 1.00043 " style="stroke:none"/>
		</g>
		<marker id="mrkr5-4" class="st2" v:arrowType="5" v:arrowSize="2" v:setback="7.63" refX="-7.63" orient="auto"
				markerUnits="strokeWidth" overflow="visible">
			<use xlink:href="#lend5" transform="scale(-4.36,-4.36) "/>
		</marker>
	</defs>
	<g v:mID="0" v:index="1" v:groupContext="foregroundPage">
		<title>页-1</title>
		<v:pageProperties v:drawingScale="0.0393701" v:pageScale="0.0393701" v:drawingUnits="24" v:shadowOffsetX="8.50394"
				v:shadowOffsetY="-8.50394"/>
		<v:layer v:name="连接线" v:index="0"/>
		<g id="shape2-1" v:mID="2" v:groupContext="shape" transform="translate(396.97,-177.391)">
			<title>圆形</title>
			<desc>-2</desc>
			<v:userDefs>
				<v:ud v:nameU="visVersion" v:val="VT0(15):26"/>
			</v:userDefs>
			<v:textBlock v:margins="rect(4,4,4,4)" v:tabSpace="42.5197"/>
			<v:textRect cx="14.1732" cy="198.876" width="24.81" height="21.2598"/>
			<path d="M0 198.88 A14.1732 14.1732 0 0 1 28.35 198.88 A14.1732 14.1732 0 1 1 0 198.88 Z" class="st1"/>
			<text x="9.79" y="201.88" class="st3" v:langID="2052"><v:paragraph v:horizAlign="1"/><v:tabList/>-2</text>		</g>
		<g id="shape3-6" v:mID="3" v:groupContext="shape" transform="translate(141.852,-134.871)">
			<title>圆形.3</title>
			<desc>-5</desc>
			<v:userDefs>
				<v:ud v:nameU="visVersion" v:val="VT0(15):26"/>
			</v:userDefs>
			<v:textBlock v:margins="rect(4,4,4,4)" v:tabSpace="42.5197"/>
			<v:textRect cx="14.1732" cy="198.876" width="24.81" height="21.2598"/>
			<path d="M0 198.88 A14.1732 14.1732 0 0 1 28.35 198.88 A14.1732 14.1732 0 1 1 0 198.88 Z" class="st1"/>
			<text x="9.79" y="201.88" class="st3" v:langID="2052"><v:paragraph v:horizAlign="1"/><v:tabList/>-5</text>		</g>
		<g id="shape5-10" v:mID="5" v:groupContext="shape" transform="translate(311.931,-7.31194)">
			<title>圆形.5</title>
			<desc>-15</desc>
			<v:userDefs>
				<v:ud v:nameU="visVersion" v:val="VT0(15):26"/>
			</v:userDefs>
			<v:textBlock v:margins="rect(4,4,4,4)" v:tabSpace="42.5197"/>
			<v:textRect cx="14.1732" cy="198.876" width="24.81" height="21.2598"/>
			<path d="M0 198.88 A14.1732 14.1732 0 0 1 28.35 198.88 A14.1732 14.1732 0 1 1 0 198.88 Z" class="st1"/>
			<text x="7.09" y="201.88" class="st3" v:langID="2052"><v:paragraph v:horizAlign="1"/><v:tabList/>-15</text>		</g>
		<g id="shape6-14" v:mID="6" v:groupContext="shape" transform="translate(354.451,-49.8316)">
			<title>圆形.6</title>
			<desc>-15</desc>
			<v:userDefs>
				<v:ud v:nameU="visVersion" v:val="VT0(15):26"/>
			</v:userDefs>
			<v:textBlock v:margins="rect(4,4,4,4)" v:tabSpace="42.5197"/>
			<v:textRect cx="14.1732" cy="198.876" width="24.81" height="21.2598"/>
			<path d="M0 198.88 A14.1732 14.1732 0 0 1 28.35 198.88 A14.1732 14.1732 0 1 1 0 198.88 Z" class="st1"/>
			<text x="7.09" y="201.88" class="st3" v:langID="2052"><v:paragraph v:horizAlign="1"/><v:tabList/>-15</text>		</g>
		<g id="shape7-18" v:mID="7" v:groupContext="shape" transform="translate(269.411,-92.3513)">
			<title>圆形.7</title>
			<desc>-15</desc>
			<v:userDefs>
				<v:ud v:nameU="visVersion" v:val="VT0(15):26"/>
			</v:userDefs>
			<v:textBlock v:margins="rect(4,4,4,4)" v:tabSpace="42.5197"/>
			<v:textRect cx="14.1732" cy="198.876" width="24.81" height="21.2598"/>
			<path d="M0 198.88 A14.1732 14.1732 0 0 1 28.35 198.88 A14.1732 14.1732 0 1 1 0 198.88 Z" class="st1"/>
			<text x="7.09" y="201.88" class="st3" v:langID="2052"><v:paragraph v:horizAlign="1"/><v:tabList/>-15</text>		</g>
		<g id="shape9-22" v:mID="9" v:groupContext="shape" transform="translate(226.892,-7.31194)">
			<title>圆形.9</title>
			<desc>-19</desc>
			<v:userDefs>
				<v:ud v:nameU="visVersion" v:val="VT0(15):26"/>
			</v:userDefs>
			<v:textBlock v:margins="rect(4,4,4,4)" v:tabSpace="42.5197"/>
			<v:textRect cx="14.1732" cy="198.876" width="24.81" height="21.2598"/>
			<path d="M0 198.88 A14.1732 14.1732 0 0 1 28.35 198.88 A14.1732 14.1732 0 1 1 0 198.88 Z" class="st1"/>
			<text x="7.09" y="201.88" class="st3" v:langID="2052"><v:paragraph v:horizAlign="1"/><v:tabList/>-19</text>		</g>
		<g id="shape10-26" v:mID="10" v:groupContext="shape" transform="translate(184.372,-49.8316)">
			<title>圆形.10</title>
			<desc>-15</desc>
			<v:userDefs>
				<v:ud v:nameU="visVersion" v:val="VT0(15):26"/>
			</v:userDefs>
			<v:textBlock v:margins="rect(4,4,4,4)" v:tabSpace="42.5197"/>
			<v:textRect cx="14.1732" cy="198.876" width="24.81" height="21.2598"/>
			<path d="M0 198.88 A14.1732 14.1732 0 0 1 28.35 198.88 A14.1732 14.1732 0 1 1 0 198.88 Z" class="st1"/>
			<text x="7.09" y="201.88" class="st3" v:langID="2052"><v:paragraph v:horizAlign="1"/><v:tabList/>-15</text>		</g>
		<g id="shape11-30" v:mID="11" v:groupContext="shape" v:layerMember="0" transform="translate(297.758,-106.525)">
			<title>动态连接线</title>
			<path d="M0 213.05 L70.87 213.05 L70.87 235.67" class="st4"/>
		</g>
		<g id="shape12-35" v:mID="12" v:groupContext="shape" v:layerMember="0" transform="translate(269.411,-106.525)">
			<title>动态连接线.12</title>
			<path d="M0 213.05 L-70.87 213.05 L-70.87 235.67" class="st4"/>
		</g>
		<g id="shape13-40" v:mID="13" v:groupContext="shape" v:layerMember="0" transform="translate(212.718,-64.0049)">
			<title>动态连接线.13</title>
			<path d="M0 213.05 L28.35 213.05 L28.35 235.67" class="st4"/>
		</g>
		<g id="shape14-45" v:mID="14" v:groupContext="shape" v:layerMember="0" transform="translate(354.451,-64.0049)">
			<title>动态连接线.14</title>
			<path d="M0 213.05 L-28.35 213.05 L-28.35 235.67" class="st4"/>
		</g>
		<g id="shape15-50" v:mID="15" v:groupContext="shape" transform="translate(99.3326,-7.31194)">
			<title>圆形.15</title>
			<desc>-6</desc>
			<v:userDefs>
				<v:ud v:nameU="visVersion" v:val="VT0(15):26"/>
			</v:userDefs>
			<v:textBlock v:margins="rect(4,4,4,4)" v:tabSpace="42.5197"/>
			<v:textRect cx="14.1732" cy="198.876" width="24.81" height="21.2598"/>
			<path d="M0 198.88 A14.1732 14.1732 0 0 1 28.35 198.88 A14.1732 14.1732 0 1 1 0 198.88 Z" class="st1"/>
			<text x="9.79" y="201.88" class="st3" v:langID="2052"><v:paragraph v:horizAlign="1"/><v:tabList/>-6</text>		</g>
		<g id="shape16-54" v:mID="16" v:groupContext="shape" transform="translate(56.8129,-49.8316)">
			<title>圆形.16</title>
			<desc>-5</desc>
			<v:userDefs>
				<v:ud v:nameU="visVersion" v:val="VT0(15):26"/>
			</v:userDefs>
			<v:textBlock v:margins="rect(4,4,4,4)" v:tabSpace="42.5197"/>
			<v:textRect cx="14.1732" cy="198.876" width="24.81" height="21.2598"/>
			<path d="M0 198.88 A14.1732 14.1732 0 0 1 28.35 198.88 A14.1732 14.1732 0 1 1 0 198.88 Z" class="st1"/>
			<text x="9.79" y="201.88" class="st3" v:langID="2052"><v:paragraph v:horizAlign="1"/><v:tabList/>-5</text>		</g>
		<g id="shape17-58" v:mID="17" v:groupContext="shape" transform="translate(14.2932,-92.3513)">
			<title>圆形.17</title>
			<desc>-5</desc>
			<v:userDefs>
				<v:ud v:nameU="visVersion" v:val="VT0(15):26"/>
			</v:userDefs>
			<v:textBlock v:margins="rect(4,4,4,4)" v:tabSpace="42.5197"/>
			<v:textRect cx="14.1732" cy="198.876" width="24.81" height="21.2598"/>
			<path d="M0 198.88 A14.1732 14.1732 0 0 1 28.35 198.88 A14.1732 14.1732 0 1 1 0 198.88 Z" class="st1"/>
			<text x="9.79" y="201.88" class="st3" v:langID="2052"><v:paragraph v:horizAlign="1"/><v:tabList/>-5</text>		</g>
		<g id="shape18-62" v:mID="18" v:groupContext="shape" v:layerMember="0" transform="translate(42.6397,-106.525)">
			<title>动态连接线.18</title>
			<path d="M0 213.05 L28.35 213.05 L28.35 235.67" class="st4"/>
		</g>
		<g id="shape19-67" v:mID="19" v:groupContext="shape" v:layerMember="0" transform="translate(85.1594,-64.0049)">
			<title>动态连接线.19</title>
			<path d="M0 213.05 L28.35 213.05 L28.35 235.67" class="st4"/>
		</g>
		<g id="shape20-72" v:mID="20" v:groupContext="shape" v:layerMember="0" transform="translate(170.199,-149.044)">
			<title>动态连接线.20</title>
			<path d="M0 213.05 L113.39 213.05 L113.39 235.67" class="st4"/>
		</g>
		<g id="shape21-77" v:mID="21" v:groupContext="shape" v:layerMember="0" transform="translate(141.852,-149.044)">
			<title>动态连接线.21</title>
			<path d="M0 213.05 L-113.39 213.05 L-113.39 235.67" class="st4"/>
		</g>
		<g id="shape23-82" v:mID="23" v:groupContext="shape" transform="translate(652.088,-134.871)">
			<title>圆形.23</title>
			<desc>-7</desc>
			<v:userDefs>
				<v:ud v:nameU="visVersion" v:val="VT0(15):26"/>
			</v:userDefs>
			<v:textBlock v:margins="rect(4,4,4,4)" v:tabSpace="42.5197"/>
			<v:textRect cx="14.1732" cy="198.876" width="24.81" height="21.2598"/>
			<path d="M0 198.88 A14.1732 14.1732 0 0 1 28.35 198.88 A14.1732 14.1732 0 1 1 0 198.88 Z" class="st1"/>
			<text x="9.79" y="201.88" class="st3" v:langID="2052"><v:paragraph v:horizAlign="1"/><v:tabList/>-7</text>		</g>
		<g id="shape24-86" v:mID="24" v:groupContext="shape" transform="translate(567.049,-7.31194)">
			<title>圆形.24</title>
			<desc>-17</desc>
			<v:userDefs>
				<v:ud v:nameU="visVersion" v:val="VT0(15):26"/>
			</v:userDefs>
			<v:textBlock v:margins="rect(4,4,4,4)" v:tabSpace="42.5197"/>
			<v:textRect cx="14.1732" cy="198.876" width="24.81" height="21.2598"/>
			<path d="M0 198.88 A14.1732 14.1732 0 0 1 28.35 198.88 A14.1732 14.1732 0 1 1 0 198.88 Z" class="st1"/>
			<text x="7.09" y="201.88" class="st3" v:langID="2052"><v:paragraph v:horizAlign="1"/><v:tabList/>-17</text>		</g>
		<g id="shape25-90" v:mID="25" v:groupContext="shape" transform="translate(609.569,-49.8316)">
			<title>圆形.25</title>
			<desc>-17</desc>
			<v:userDefs>
				<v:ud v:nameU="visVersion" v:val="VT0(15):26"/>
			</v:userDefs>
			<v:textBlock v:margins="rect(4,4,4,4)" v:tabSpace="42.5197"/>
			<v:textRect cx="14.1732" cy="198.876" width="24.81" height="21.2598"/>
			<path d="M0 198.88 A14.1732 14.1732 0 0 1 28.35 198.88 A14.1732 14.1732 0 1 1 0 198.88 Z" class="st1"/>
			<text x="7.09" y="201.88" class="st3" v:langID="2052"><v:paragraph v:horizAlign="1"/><v:tabList/>-17</text>		</g>
		<g id="shape26-94" v:mID="26" v:groupContext="shape" transform="translate(524.529,-92.3513)">
			<title>圆形.26</title>
			<desc>-17</desc>
			<v:userDefs>
				<v:ud v:nameU="visVersion" v:val="VT0(15):26"/>
			</v:userDefs>
			<v:textBlock v:margins="rect(4,4,4,4)" v:tabSpace="42.5197"/>
			<v:textRect cx="14.1732" cy="198.876" width="24.81" height="21.2598"/>
			<path d="M0 198.88 A14.1732 14.1732 0 0 1 28.35 198.88 A14.1732 14.1732 0 1 1 0 198.88 Z" class="st1"/>
			<text x="7.09" y="201.88" class="st3" v:langID="2052"><v:paragraph v:horizAlign="1"/><v:tabList/>-17</text>		</g>
		<g id="shape27-98" v:mID="27" v:groupContext="shape" transform="translate(482.01,-7.31194)">
			<title>圆形.27</title>
			<desc>-21</desc>
			<v:userDefs>
				<v:ud v:nameU="visVersion" v:val="VT0(15):26"/>
			</v:userDefs>
			<v:textBlock v:margins="rect(4,4,4,4)" v:tabSpace="42.5197"/>
			<v:textRect cx="14.1732" cy="198.876" width="24.81" height="21.2598"/>
			<path d="M0 198.88 A14.1732 14.1732 0 0 1 28.35 198.88 A14.1732 14.1732 0 1 1 0 198.88 Z" class="st1"/>
			<text x="7.09" y="201.88" class="st3" v:langID="2052"><v:paragraph v:horizAlign="1"/><v:tabList/>-21</text>		</g>
		<g id="shape28-102" v:mID="28" v:groupContext="shape" transform="translate(439.49,-49.8316)">
			<title>圆形.28</title>
			<desc>-17</desc>
			<v:userDefs>
				<v:ud v:nameU="visVersion" v:val="VT0(15):26"/>
			</v:userDefs>
			<v:textBlock v:margins="rect(4,4,4,4)" v:tabSpace="42.5197"/>
			<v:textRect cx="14.1732" cy="198.876" width="24.81" height="21.2598"/>
			<path d="M0 198.88 A14.1732 14.1732 0 0 1 28.35 198.88 A14.1732 14.1732 0 1 1 0 198.88 Z" class="st1"/>
			<text x="7.09" y="201.88" class="st3" v:langID="2052"><v:paragraph v:horizAlign="1"/><v:tabList/>-17</text>		</g>
		<g id="shape29-106" v:mID="29" v:groupContext="shape" v:layerMember="0" transform="translate(552.876,-106.525)">
			<title>动态连接线.29</title>
			<path d="M0 213.05 L70.87 213.05 L70.87 235.67" class="st4"/>
		</g>
		<g id="shape30-111" v:mID="30" v:groupContext="shape" v:layerMember="0" transform="translate(524.529,-106.525)">
			<title>动态连接线.30</title>
			<path d="M0 213.05 L-70.87 213.05 L-70.87 235.67" class="st4"/>
		</g>
		<g id="shape31-116" v:mID="31" v:groupContext="shape" v:layerMember="0" transform="translate(467.837,-64.0049)">
			<title>动态连接线.31</title>
			<path d="M0 213.05 L28.35 213.05 L28.35 235.67" class="st4"/>
		</g>
		<g id="shape32-121" v:mID="32" v:groupContext="shape" v:layerMember="0" transform="translate(609.569,-64.0049)">
			<title>动态连接线.32</title>
			<path d="M0 213.05 L-28.35 213.05 L-28.35 235.67" class="st4"/>
		</g>
		<g id="shape33-126" v:mID="33" v:groupContext="shape" transform="translate(694.608,-7.31194)">
			<title>圆形.33</title>
			<desc>-7</desc>
			<v:userDefs>
				<v:ud v:nameU="visVersion" v:val="VT0(15):26"/>
			</v:userDefs>
			<v:textBlock v:margins="rect(4,4,4,4)" v:tabSpace="42.5197"/>
			<v:textRect cx="14.1732" cy="198.876" width="24.81" height="21.2598"/>
			<path d="M0 198.88 A14.1732 14.1732 0 0 1 28.35 198.88 A14.1732 14.1732 0 1 1 0 198.88 Z" class="st1"/>
			<text x="9.79" y="201.88" class="st3" v:langID="2052"><v:paragraph v:horizAlign="1"/><v:tabList/>-7</text>		</g>
		<g id="shape34-130" v:mID="34" v:groupContext="shape" transform="translate(737.128,-49.8316)">
			<title>圆形.34</title>
			<desc>-7</desc>
			<v:userDefs>
				<v:ud v:nameU="visVersion" v:val="VT0(15):26"/>
			</v:userDefs>
			<v:textBlock v:margins="rect(4,4,4,4)" v:tabSpace="42.5197"/>
			<v:textRect cx="14.1732" cy="198.876" width="24.81" height="21.2598"/>
			<path d="M0 198.88 A14.1732 14.1732 0 0 1 28.35 198.88 A14.1732 14.1732 0 1 1 0 198.88 Z" class="st1"/>
			<text x="9.79" y="201.88" class="st3" v:langID="2052"><v:paragraph v:horizAlign="1"/><v:tabList/>-7</text>		</g>
		<g id="shape35-134" v:mID="35" v:groupContext="shape" transform="translate(779.648,-92.3513)">
			<title>圆形.35</title>
			<desc>-7</desc>
			<v:userDefs>
				<v:ud v:nameU="visVersion" v:val="VT0(15):26"/>
			</v:userDefs>
			<v:textBlock v:margins="rect(4,4,4,4)" v:tabSpace="42.5197"/>
			<v:textRect cx="14.1732" cy="198.876" width="24.81" height="21.2598"/>
			<path d="M0 198.88 A14.1732 14.1732 0 0 1 28.35 198.88 A14.1732 14.1732 0 1 1 0 198.88 Z" class="st1"/>
			<text x="9.79" y="201.88" class="st3" v:langID="2052"><v:paragraph v:horizAlign="1"/><v:tabList/>-7</text>		</g>
		<g id="shape36-138" v:mID="36" v:groupContext="shape" v:layerMember="0" transform="translate(779.648,-106.525)">
			<title>动态连接线.36</title>
			<path d="M0 213.05 L-28.35 213.05 L-28.35 235.67" class="st4"/>
		</g>
		<g id="shape37-143" v:mID="37" v:groupContext="shape" v:layerMember="0" transform="translate(737.128,-64.0049)">
			<title>动态连接线.37</title>
			<path d="M0 213.05 L-28.35 213.05 L-28.35 235.67" class="st4"/>
		</g>
		<g id="shape39-148" v:mID="39" v:groupContext="shape" v:layerMember="0" transform="translate(680.435,-149.044)">
			<title>动态连接线.39</title>
			<path d="M0 213.05 L113.39 213.05 L113.39 235.67" class="st4"/>
		</g>
		<g id="shape40-153" v:mID="40" v:groupContext="shape" v:layerMember="0" transform="translate(652.088,-149.044)">
			<title>动态连接线.40</title>
			<path d="M0 213.05 L-113.39 213.05 L-113.39 235.67" class="st4"/>
		</g>
		<g id="shape41-158" v:mID="41" v:groupContext="shape" v:layerMember="0" transform="translate(425.317,-191.564)">
			<title>动态连接线.41</title>
			<path d="M0 213.05 L240.94 213.05 L240.94 235.67" class="st4"/>
		</g>
		<g id="shape42-163" v:mID="42" v:groupContext="shape" v:layerMember="0" transform="translate(396.97,-191.564)">
			<title>动态连接线.42</title>
			<path d="M0 213.05 L-240.94 213.05 L-240.94 235.67" class="st4"/>
		</g>
		<g id="shape43-168" v:mID="43" v:groupContext="shape" transform="translate(382.797,-149.044)">
			<title>矩形</title>
			<desc>(0, 0)</desc>
			<v:userDefs>
				<v:ud v:nameU="visVersion" v:val="VT0(15):26"/>
			</v:userDefs>
			<v:textBlock v:margins="rect(4,4,4,4)" v:tabSpace="42.5197"/>
			<v:textRect cx="28.3465" cy="198.876" width="56.7" height="28.3465"/>
			<rect x="0" y="184.703" width="56.6929" height="28.3465" class="st5"/>
			<text x="16.43" y="201.88" class="st3" v:langID="2052"><v:paragraph v:horizAlign="1"/><v:tabList/>(0, 0)</text>		</g>
		<g id="shape44-171" v:mID="44" v:groupContext="shape" transform="translate(127.679,-106.525)">
			<title>矩形.44</title>
			<desc>(0, 1)</desc>
			<v:userDefs>
				<v:ud v:nameU="visVersion" v:val="VT0(15):26"/>
			</v:userDefs>
			<v:textBlock v:margins="rect(4,4,4,4)" v:tabSpace="42.5197"/>
			<v:textRect cx="28.3465" cy="198.876" width="56.7" height="28.3465"/>
			<rect x="0" y="184.703" width="56.6929" height="28.3465" class="st5"/>
			<text x="16.43" y="201.88" class="st3" v:langID="2052"><v:paragraph v:horizAlign="1"/><v:tabList/>(0, 1)</text>		</g>
		<g id="shape45-174" v:mID="45" v:groupContext="shape" transform="translate(0.12,-64.0049)">
			<title>矩形.45</title>
			<desc>(0, 2)</desc>
			<v:userDefs>
				<v:ud v:nameU="visVersion" v:val="VT0(15):26"/>
			</v:userDefs>
			<v:textBlock v:margins="rect(4,4,4,4)" v:tabSpace="42.5197"/>
			<v:textRect cx="28.3465" cy="198.876" width="56.7" height="28.3465"/>
			<rect x="0" y="184.703" width="56.6929" height="28.3465" class="st5"/>
			<text x="16.43" y="201.88" class="st3" v:langID="2052"><v:paragraph v:horizAlign="1"/><v:tabList/>(0, 2)</text>		</g>
		<g id="shape46-177" v:mID="46" v:groupContext="shape" transform="translate(42.6397,-21.4852)">
			<title>矩形.46</title>
			<desc>(1, 2)</desc>
			<v:userDefs>
				<v:ud v:nameU="visVersion" v:val="VT0(15):26"/>
			</v:userDefs>
			<v:textBlock v:margins="rect(4,4,4,4)" v:tabSpace="42.5197"/>
			<v:textRect cx="28.3465" cy="198.876" width="56.7" height="28.3465"/>
			<rect x="0" y="184.703" width="56.6929" height="28.3465" class="st5"/>
			<text x="16.43" y="201.88" class="st3" v:langID="2052"><v:paragraph v:horizAlign="1"/><v:tabList/>(1, 2)</text>		</g>
		<g id="shape48-180" v:mID="48" v:groupContext="shape" transform="translate(255.238,-64.0049)">
			<title>矩形.48</title>
			<desc>(1, 1)</desc>
			<v:userDefs>
				<v:ud v:nameU="visVersion" v:val="VT0(15):26"/>
			</v:userDefs>
			<v:textBlock v:margins="rect(4,4,4,4)" v:tabSpace="42.5197"/>
			<v:textRect cx="28.3465" cy="198.876" width="56.7" height="28.3465"/>
			<rect x="0" y="184.703" width="56.6929" height="28.3465" class="st5"/>
			<text x="16.43" y="201.88" class="st3" v:langID="2052"><v:paragraph v:horizAlign="1"/><v:tabList/>(1, 1)</text>		</g>
		<g id="shape50-183" v:mID="50" v:groupContext="shape" transform="translate(170.199,-21.4852)">
			<title>矩形.50</title>
			<desc>(1, 2)</desc>
			<v:userDefs>
				<v:ud v:nameU="visVersion" v:val="VT0(15):26"/>
			</v:userDefs>
			<v:textBlock v:margins="rect(4,4,4,4)" v:tabSpace="42.5197"/>
			<v:textRect cx="28.3465" cy="198.876" width="56.7" height="28.3465"/>
			<rect x="0" y="184.703" width="56.6929" height="28.3465" class="st5"/>
			<text x="16.43" y="201.88" class="st3" v:langID="2052"><v:paragraph v:horizAlign="1"/><v:tabList/>(1, 2)</text>		</g>
		<g id="shape52-186" v:mID="52" v:groupContext="shape" transform="translate(340.277,-21.4852)">
			<title>矩形.52</title>
			<desc>(2, 1)</desc>
			<v:userDefs>
				<v:ud v:nameU="visVersion" v:val="VT0(15):26"/>
			</v:userDefs>
			<v:textBlock v:margins="rect(4,4,4,4)" v:tabSpace="42.5197"/>
			<v:textRect cx="28.3465" cy="198.876" width="56.7" height="28.3465"/>
			<rect x="0" y="184.703" width="56.6929" height="28.3465" class="st5"/>
			<text x="16.43" y="201.88" class="st3" v:langID="2052"><v:paragraph v:horizAlign="1"/><v:tabList/>(2, 1)</text>		</g>
		<g id="shape53-189" v:mID="53" v:groupContext="shape" transform="translate(637.915,-106.525)">
			<title>矩形.53</title>
			<desc>(1, 0)</desc>
			<v:userDefs>
				<v:ud v:nameU="visVersion" v:val="VT0(15):26"/>
			</v:userDefs>
			<v:textBlock v:margins="rect(4,4,4,4)" v:tabSpace="42.5197"/>
			<v:textRect cx="28.3465" cy="198.876" width="56.7" height="28.3465"/>
			<rect x="0" y="184.703" width="56.6929" height="28.3465" class="st5"/>
			<text x="16.43" y="201.88" class="st3" v:langID="2052"><v:paragraph v:horizAlign="1"/><v:tabList/>(1, 0)</text>		</g>
		<g id="shape55-192" v:mID="55" v:groupContext="shape" transform="translate(510.356,-64.0049)">
			<title>矩形.55</title>
			<desc>(1, 1)</desc>
			<v:userDefs>
				<v:ud v:nameU="visVersion" v:val="VT0(15):26"/>
			</v:userDefs>
			<v:textBlock v:margins="rect(4,4,4,4)" v:tabSpace="42.5197"/>
			<v:textRect cx="28.3465" cy="198.876" width="56.7" height="28.3465"/>
			<rect x="0" y="184.703" width="56.6929" height="28.3465" class="st5"/>
			<text x="16.43" y="201.88" class="st3" v:langID="2052"><v:paragraph v:horizAlign="1"/><v:tabList/>(1, 1)</text>		</g>
		<g id="shape56-195" v:mID="56" v:groupContext="shape" transform="translate(425.317,-21.4852)">
			<title>矩形.56</title>
			<desc>(1, 2)</desc>
			<v:userDefs>
				<v:ud v:nameU="visVersion" v:val="VT0(15):26"/>
			</v:userDefs>
			<v:textBlock v:margins="rect(4,4,4,4)" v:tabSpace="42.5197"/>
			<v:textRect cx="28.3465" cy="198.876" width="56.7" height="28.3465"/>
			<rect x="0" y="184.703" width="56.6929" height="28.3465" class="st5"/>
			<text x="16.43" y="201.88" class="st3" v:langID="2052"><v:paragraph v:horizAlign="1"/><v:tabList/>(1, 2)</text>		</g>
		<g id="shape57-198" v:mID="57" v:groupContext="shape" transform="translate(595.396,-21.4852)">
			<title>矩形.57</title>
			<desc>(2, 1)</desc>
			<v:userDefs>
				<v:ud v:nameU="visVersion" v:val="VT0(15):26"/>
			</v:userDefs>
			<v:textBlock v:margins="rect(4,4,4,4)" v:tabSpace="42.5197"/>
			<v:textRect cx="28.3465" cy="198.876" width="56.7" height="28.3465"/>
			<rect x="0" y="184.703" width="56.6929" height="28.3465" class="st5"/>
			<text x="16.43" y="201.88" class="st3" v:langID="2052"><v:paragraph v:horizAlign="1"/><v:tabList/>(2, 1)</text>		</g>
		<g id="shape58-201" v:mID="58" v:groupContext="shape" transform="translate(765.474,-64.0049)">
			<title>矩形.58</title>
			<desc>(2, 0)</desc>
			<v:userDefs>
				<v:ud v:nameU="visVersion" v:val="VT0(15):26"/>
			</v:userDefs>
			<v:textBlock v:margins="rect(4,4,4,4)" v:tabSpace="42.5197"/>
			<v:textRect cx="28.3465" cy="198.876" width="56.7" height="28.3465"/>
			<rect x="0" y="184.703" width="56.6929" height="28.3465" class="st5"/>
			<text x="16.43" y="201.88" class="st3" v:langID="2052"><v:paragraph v:horizAlign="1"/><v:tabList/>(2, 0)</text>		</g>
		<g id="shape59-204" v:mID="59" v:groupContext="shape" transform="translate(722.955,-21.4852)">
			<title>矩形.59</title>
			<desc>(2, 1)</desc>
			<v:userDefs>
				<v:ud v:nameU="visVersion" v:val="VT0(15):26"/>
			</v:userDefs>
			<v:textBlock v:margins="rect(4,4,4,4)" v:tabSpace="42.5197"/>
			<v:textRect cx="28.3465" cy="198.876" width="56.7" height="28.3465"/>
			<rect x="0" y="184.703" width="56.6929" height="28.3465" class="st5"/>
			<text x="16.43" y="201.88" class="st3" v:langID="2052"><v:paragraph v:horizAlign="1"/><v:tabList/>(2, 1)</text>		</g>
	</g>
</svg>
